<svg width="32" height="32" viewBox="0 0 32 32" fill="none" xmlns="http://www.w3.org/2000/svg">
<path opacity="0.4" d="M23.3067 14.0667C22.7467 14.6133 22.4268 15.4 22.5068 16.24C22.6268 17.68 23.9467 18.7333 25.3867 18.7333H28.0001V20.6667C28.0001 24.6667 25.3334 27.3333 21.3334 27.3333H9.33342C5.33341 27.3333 2.66675 24.6667 2.66675 20.6667V11.3333C2.66675 7.70667 4.85342 5.17333 8.25342 4.74666C8.60008 4.69333 8.96008 4.66667 9.33342 4.66667H21.3334C21.6801 4.66667 22.0134 4.67998 22.3334 4.73332C25.7734 5.13332 28.0001 7.68 28.0001 11.3333V13.2667H25.2267C24.4801 13.2667 23.8001 13.56 23.3067 14.0667Z" fill="white"/>
<path d="M29.3335 14.6266V17.3734C29.3335 18.1067 28.7468 18.7067 28.0001 18.7333H25.3868C23.9468 18.7333 22.6268 17.68 22.5068 16.24C22.4268 15.4 22.7468 14.6133 23.3068 14.0667C23.8001 13.56 24.4801 13.2667 25.2268 13.2667H28.0001C28.7468 13.2934 29.3335 13.8933 29.3335 14.6266Z" fill="white"/>
</svg>
