<svg width="22" height="22" viewBox="0 0 22 22" fill="none" xmlns="http://www.w3.org/2000/svg">
    <path
        d="M20.19 7.80505V7.81V16.19C20.19 17.652 19.7612 18.6033 19.1772 19.1872C18.5933 19.7712 17.642 20.2 16.18 20.2H7.81C6.348 20.2 5.39731 19.7712 4.81359 19.1868C4.22961 18.602 3.8 17.6483 3.8 16.18V7.81C3.8 6.34797 4.22884 5.39674 4.81279 4.81279C5.39674 4.22884 6.34797 3.8 7.81 3.8H16.19C17.6524 3.8 18.6029 4.22899 19.1852 4.81199C19.7671 5.39462 20.194 6.34416 20.19 7.80505ZM18.0528 10.9728L18.0636 10.962L18.0742 10.951C19.0269 9.96543 19.0574 8.37182 18.0528 7.36721C17.0598 6.37426 15.4402 6.37426 14.4472 7.36721L10.58 11.2344L9.55279 10.2072C8.55985 9.21426 6.94015 9.21426 5.94721 10.2072C4.95426 11.2002 4.95426 12.8198 5.94721 13.8128L8.77721 16.6428C9.25092 17.1165 9.89719 17.39 10.58 17.39C11.2628 17.39 11.9091 17.1165 12.3828 16.6428L18.0528 10.9728Z"
        fill="white" stroke="white" strokeWidth="3.6" />
</svg>